<svg width="30" height="24" viewBox="0 0 30 24" fill="none" xmlns="http://www.w3.org/2000/svg">
<path d="M26.2969 0C28.3125 0 30 1.64062 30 3.60938V18.3281C30 20.2031 28.4531 21.7969 26.5312 21.8906C24.7969 21.9844 20.4844 22.3594 17.7188 23.7188C17.3438 23.9062 16.9219 24 16.5 24H13.4531C13.0312 24 12.6094 23.9062 12.2344 23.7188C9.46875 22.3594 5.15625 21.9844 3.42188 21.8906C1.5 21.7969 0 20.2031 0 18.3281V3.60938C0 1.64062 1.64062 0 3.65625 0C4.21875 0 10.9219 0.328125 15 2.67188C19.0312 0.328125 25.7344 0 26.2969 0ZM13.875 20.5781V10.5L13.8281 5.53125C13.8281 4.96875 13.5 4.40625 12.9375 4.17188C9.5625 2.625 4.54688 2.29688 3.65625 2.25C2.85938 2.25 2.25 2.85938 2.25 3.60938V18.3281C2.25 19.0312 2.8125 19.5938 3.5625 19.6406C5.625 19.7812 9.84375 20.1094 12.8438 21.2812C13.3594 21.4688 13.875 21.0938 13.875 20.5781ZM27.75 18.3281V3.60938C27.75 2.85938 27.0938 2.25 26.2969 2.25C25.4062 2.29688 20.3906 2.625 17.0156 4.17188C16.4531 4.40625 16.125 4.96875 16.125 5.53125V20.5781C16.125 21.0938 16.5938 21.4688 17.1094 21.2812C20.1094 20.1094 24.3281 19.7812 26.3906 19.6406C27.1406 19.5938 27.75 19.0312 27.75 18.3281Z" fill="#2E1401"/>
</svg>
