<svg width="26" height="24" viewBox="0 0 26 24" fill="none" xmlns="http://www.w3.org/2000/svg">
<path d="M23.9531 10.7344C24.9375 11.5781 25.5 12.7969 25.4531 14.0625C25.4531 15.6094 24.7031 17.0156 23.4375 17.8594C23.3906 20.0625 21.6094 21.8906 19.4062 21.9844C18.6562 23.25 17.2969 24 15.7969 24C14.5781 24 13.5 23.4844 12.7031 22.6875C11.9531 23.4844 10.875 24 9.65625 24C8.15625 24 6.79688 23.25 6.04688 21.9844C3.84375 21.8906 2.0625 20.0625 2.01562 17.8594C0.75 17.0156 0 15.6094 0 14.0625C0 12.7969 0.515625 11.5781 1.5 10.7344C1.40625 10.3594 1.35938 9.98438 1.35938 9.65625C1.35938 8.10938 2.10938 6.70312 3.375 5.85938C3.42188 3.98438 4.78125 2.4375 6.5625 2.10938C7.21875 0.84375 8.53125 0 9.98438 0C10.875 0 12.0938 0.515625 12.75 1.17188C13.4062 0.46875 14.3906 0 15.4688 0C16.9219 0 18.2344 0.84375 18.8906 2.10938C20.6719 2.4375 22.0312 3.98438 22.0781 5.85938C23.3438 6.70312 24.0938 8.10938 24.0938 9.65625C24.0938 9.98438 24.0469 10.3594 23.9531 10.7344ZM11.5781 19.8281V3.89062C11.5781 3 10.875 2.29688 9.98438 2.29688C9.28125 2.29688 8.625 2.76562 8.4375 3.46875L8.20312 4.35938L7.17188 4.3125C6.375 4.3125 5.67188 5.01562 5.67188 5.90625C5.67188 6.09375 5.67188 6.14062 5.90625 7.17188L5.01562 7.54688C4.40625 7.78125 3.04688 8.95312 3.84375 10.6406L4.3125 11.5781L3.42188 12.0938C1.73438 13.0781 1.92188 15.4688 3.65625 16.1719L4.5 16.5C4.5 16.5 4.3125 17.6719 4.3125 17.8125C4.3125 18.9844 5.4375 19.875 6.5625 19.6875L7.5 19.5469C7.78125 20.3906 8.10938 21.75 9.65625 21.75C10.7344 21.75 11.5781 20.9062 11.5781 19.8281ZM21.7969 16.1719C23.5312 15.4688 23.7188 13.0781 22.0312 12.0938L21.1406 11.5781L21.6094 10.6406C22.4062 8.95312 21.0469 7.78125 20.4375 7.54688L19.5469 7.17188C19.7812 6.14062 19.7812 6.09375 19.7812 5.90625C19.7812 5.01562 19.0781 4.3125 18.2812 4.3125L17.2031 4.35938L17.0156 3.46875C16.8281 2.76562 16.1719 2.25 15.4688 2.25C14.5781 2.25 13.875 3 13.875 3.84375V19.8281C13.875 20.9062 14.7188 21.75 15.7969 21.75C17.3438 21.75 17.6719 20.3906 17.9531 19.5469L18.8906 19.6875C20.0156 19.875 21.1406 18.9844 21.1406 17.8125C21.1406 17.6719 20.9531 16.5 20.9531 16.5L21.7969 16.1719Z" fill="#2E1401"/>
</svg>
