<svg width="24" height="24" viewBox="0 0 24 24" fill="none" xmlns="http://www.w3.org/2000/svg">
<path d="M24 12.0352C24 12.5977 23.625 13.1602 23.0625 13.3945L19.3594 14.9883L23.0625 16.6289C23.625 16.8633 23.9531 17.4258 23.9531 18.0352C23.9531 18.5977 23.625 19.1602 23.0625 19.3945L12.8438 23.8477C12.5625 23.9414 12.2812 23.9883 11.9531 23.9883C11.7188 23.9883 11.3438 23.9414 11.1094 23.8477L0.890625 19.3945C0.328125 19.1602 0 18.5977 0 18.0352C0 17.4258 0.328125 16.8633 0.890625 16.6289L4.59375 14.9883L0.890625 13.3945C0.328125 13.1602 0 12.5977 0 12.0352C0 11.4258 0.328125 10.8633 0.890625 10.6289L4.59375 8.98828L0.890625 7.39453C0.328125 7.16016 0 6.59766 0 5.98828C0 5.42578 0.328125 4.86328 0.890625 4.62891L11.1094 0.175781C11.6719 -0.0585938 12.2812 -0.0585938 12.8438 0.175781L23.0625 4.62891C23.625 4.86328 24 5.42578 24 5.98828C24 6.59766 23.625 7.16016 23.0625 7.39453L19.3594 8.98828L23.0625 10.6289C23.625 10.8633 24 11.4258 24 12.0352ZM12 2.28516L3.32812 5.98828L12 9.78516L20.625 6.03516L12 2.28516ZM20.625 18.0352L16.5 16.2539L12.8438 17.8477C12.5625 17.9414 12.2812 17.9883 12 17.9883C11.7188 17.9883 11.3438 17.9414 11.1094 17.8477L7.45312 16.2539L3.32812 17.9883L12 21.7852L20.625 18.0352ZM12 15.7852L20.625 12.0352L16.5 10.2539L12.8438 11.8477C12.5625 11.9414 12.2812 11.9883 12 11.9883C11.7188 11.9883 11.3438 11.9414 11.1094 11.8477L7.45312 10.2539L3.32812 11.9883L12 15.7852Z" fill="#2E1401"/>
</svg>
